# xmcd CD database file
#
# Track frame offsets:
#	183
#	40567
#	75879
#	101880
#	140308
#	179211
#	211440
#	231364
#	244516
#	261758
#
# Disc length: 4103 seconds
#
# Revision: 1
# Processed by: cddbd v1.5.2PL0 Copyright (c) Steve Scherf et al.
# Submitted via: CDex 1.51
#
DISCID=8310050a
DTITLE=Henri Renaud - Henri Renaud All Stars  (New York le 7 Mars 1954)
DYEAR=2006
DGENRE=Jazz
TTITLE0=I' ll remember april
TTITLE1=Jay jay's blues
TTITLE2=Jerry old man
TTITLE3=There's no you
TTITLE4=Out of nowhere
TTITLE5=If I had you
TTITLE6=The more I see you
TTITLE7=Lullaby of the leaves
TTITLE8=Indiana
TTITLE9=If I had you - Alternate take
EXTD=YEAR: 2006
EXTT0=
EXTT1=
EXTT2=
EXTT3=
EXTT4=
EXTT5=
EXTT6=
EXTT7=
EXTT8=
EXTT9=
PLAYORDER=
